<svg width="1280" height="282" viewBox="0 0 1280 282" fill="none" xmlns="http://www.w3.org/2000/svg">
<path d="M0 32L42.6667 26.7C85.3333 21 170.667 11 256 42.7C341.333 75 426.667 149 512 160C597.333 171 682.667 117 768 112C853.333 107 938.667 149 1024 138.7C1109.33 128 1194.67 64 1237.33 32L1280 0V288H1237.33C1194.67 288 1109.33 288 1024 288C938.667 288 853.333 288 768 288C682.667 288 597.333 288 512 288C426.667 288 341.333 288 256 288C170.667 288 85.3333 288 42.6667 288H0V32Z" fill="#ECECEC"/>
</svg>
